<svg width="255" height="98" viewBox="0 0 255 98" fill="none" xmlns="http://www.w3.org/2000/svg">
<path d="M103.111 55.384C101.911 55.384 100.863 55.256 99.9672 55C99.0712 54.744 98.2472 54.36 97.4952 53.848L98.2632 52.216C99.6072 53.176 101.223 53.656 103.111 53.656C104.199 53.656 105.103 53.392 105.823 52.864C106.543 52.336 106.903 51.616 106.903 50.704C106.903 50.144 106.735 49.672 106.399 49.288C106.063 48.904 105.639 48.6 105.127 48.376C104.631 48.136 103.935 47.856 103.039 47.536C101.967 47.152 101.103 46.8 100.447 46.48C99.8072 46.16 99.2552 45.712 98.7912 45.136C98.3432 44.544 98.1192 43.792 98.1192 42.88C98.1192 41.44 98.6312 40.328 99.6552 39.544C100.679 38.76 101.991 38.368 103.591 38.368C105.511 38.368 107.183 38.872 108.607 39.88L107.839 41.464C106.559 40.536 105.159 40.072 103.639 40.072C102.663 40.072 101.863 40.304 101.239 40.768C100.615 41.232 100.303 41.904 100.303 42.784C100.303 43.328 100.471 43.784 100.807 44.152C101.143 44.52 101.559 44.824 102.055 45.064C102.551 45.288 103.239 45.56 104.119 45.88C105.191 46.264 106.055 46.624 106.711 46.96C107.367 47.28 107.927 47.744 108.391 48.352C108.855 48.944 109.087 49.696 109.087 50.608C109.087 51.584 108.839 52.432 108.343 53.152C107.847 53.872 107.143 54.424 106.231 54.808C105.335 55.192 104.295 55.384 103.111 55.384ZM118.395 41.752C119.451 41.752 120.379 42.016 121.179 42.544C121.979 43.056 122.603 43.816 123.051 44.824C123.499 45.816 123.723 46.992 123.723 48.352C123.723 50.672 123.123 52.432 121.923 53.632C120.723 54.832 119.139 55.432 117.171 55.432C116.323 55.432 115.523 55.288 114.771 55V60.664H112.635V42.136H114.291L114.531 43.216C115.667 42.24 116.955 41.752 118.395 41.752ZM117.075 53.776C118.595 53.776 119.715 53.288 120.435 52.312C121.171 51.336 121.539 50 121.539 48.304C121.539 46.608 121.219 45.376 120.579 44.608C119.955 43.824 119.179 43.432 118.251 43.432C117.563 43.432 116.955 43.536 116.427 43.744C115.915 43.936 115.363 44.256 114.771 44.704V53.32C115.459 53.624 116.227 53.776 117.075 53.776ZM137.704 54.976C137.128 55.184 136.552 55.296 135.976 55.312C135.336 55.312 134.808 55.184 134.392 54.928C133.992 54.672 133.744 54.224 133.648 53.584C132.128 54.752 130.72 55.336 129.424 55.336C128.416 55.336 127.592 55.048 126.952 54.472C126.312 53.88 125.992 53.144 125.992 52.264C125.992 51.448 126.216 50.776 126.664 50.248C127.112 49.704 127.736 49.256 128.536 48.904C129.352 48.552 130.448 48.176 131.824 47.776L133.6 47.272V46.336C133.6 44.416 132.872 43.456 131.416 43.456C130.616 43.456 129.88 43.624 129.208 43.96C128.536 44.28 127.776 44.888 126.928 45.784L126.04 44.44C127.832 42.648 129.76 41.752 131.824 41.752C133.2 41.752 134.192 42.112 134.8 42.832C135.424 43.552 135.736 44.752 135.736 46.432V52.696C135.736 53.048 135.8 53.304 135.928 53.464C136.056 53.608 136.256 53.68 136.528 53.68C136.768 53.68 137.112 53.6 137.56 53.44L137.704 54.976ZM128.128 52.096C128.128 52.64 128.288 53.04 128.608 53.296C128.928 53.552 129.352 53.68 129.88 53.68C130.424 53.68 130.984 53.544 131.56 53.272C132.152 53 132.832 52.584 133.6 52.024V48.688L132.232 49.096C130.712 49.56 129.648 50.008 129.04 50.44C128.432 50.872 128.128 51.424 128.128 52.096ZM147.08 43.768C146.312 43.768 145.576 43.904 144.872 44.176C144.184 44.432 143.408 44.912 142.544 45.616V55H140.408V42.184H142.064L142.448 43.912C143.232 43.128 143.992 42.576 144.728 42.256C145.48 41.936 146.264 41.776 147.08 41.776V43.768ZM157.241 54.52C156.409 55.048 155.513 55.312 154.553 55.312C153.177 55.312 152.161 54.944 151.505 54.208C150.849 53.456 150.521 52.384 150.521 50.992V43.792H148.481V42.88L150.713 42.256L151.361 39.16H152.657V42.184H156.497V43.792H152.657V50.656C152.657 51.696 152.825 52.456 153.161 52.936C153.497 53.4 154.041 53.632 154.793 53.632C155.161 53.616 155.497 53.56 155.801 53.464C156.121 53.368 156.473 53.216 156.857 53.008L157.241 54.52ZM170.915 54.976C170.339 55.184 169.763 55.296 169.187 55.312C168.547 55.312 168.019 55.184 167.603 54.928C167.203 54.672 166.955 54.224 166.859 53.584C165.339 54.752 163.931 55.336 162.635 55.336C161.627 55.336 160.803 55.048 160.163 54.472C159.523 53.88 159.203 53.144 159.203 52.264C159.203 51.448 159.427 50.776 159.875 50.248C160.323 49.704 160.947 49.256 161.747 48.904C162.563 48.552 163.659 48.176 165.035 47.776L166.811 47.272V46.336C166.811 44.416 166.083 43.456 164.627 43.456C163.827 43.456 163.091 43.624 162.419 43.96C161.747 44.28 160.987 44.888 160.139 45.784L159.251 44.44C161.043 42.648 162.971 41.752 165.035 41.752C166.411 41.752 167.403 42.112 168.011 42.832C168.635 43.552 168.947 44.752 168.947 46.432V52.696C168.947 53.048 169.011 53.304 169.139 53.464C169.267 53.608 169.467 53.68 169.739 53.68C169.979 53.68 170.323 53.6 170.771 53.44L170.915 54.976ZM161.339 52.096C161.339 52.64 161.499 53.04 161.819 53.296C162.139 53.552 162.563 53.68 163.091 53.68C163.635 53.68 164.195 53.544 164.771 53.272C165.363 53 166.043 52.584 166.811 52.024V48.688L165.443 49.096C163.923 49.56 162.859 50.008 162.251 50.44C161.643 50.872 161.339 51.424 161.339 52.096ZM180.723 55.216C180.323 55.216 179.979 55.072 179.691 54.784C179.403 54.496 179.259 54.152 179.259 53.752C179.259 53.352 179.403 53.008 179.691 52.72C179.979 52.432 180.323 52.288 180.723 52.288C181.123 52.288 181.467 52.432 181.755 52.72C182.043 53.008 182.187 53.352 182.187 53.752C182.187 54.152 182.043 54.496 181.755 54.784C181.483 55.072 181.139 55.216 180.723 55.216ZM186.754 38.68H188.962V55H186.754V38.68ZM200.396 41.752C201.804 41.752 202.772 42.128 203.3 42.88C203.844 43.616 204.116 44.68 204.116 46.072V55H201.98V46.264C201.98 45.256 201.82 44.536 201.5 44.104C201.18 43.672 200.628 43.456 199.844 43.456C199.252 43.456 198.652 43.592 198.044 43.864C197.436 44.136 196.772 44.552 196.052 45.112V55H193.916V42.184H195.572L195.884 43.528C197.436 42.344 198.94 41.752 200.396 41.752ZM213.558 55.432C212.214 55.432 211.078 55.128 210.15 54.52C209.222 53.896 208.526 53.072 208.062 52.048C207.614 51.024 207.39 49.88 207.39 48.616C207.39 47.368 207.622 46.224 208.086 45.184C208.566 44.144 209.286 43.312 210.246 42.688C211.206 42.064 212.398 41.752 213.822 41.752C214.606 41.752 215.358 41.888 216.078 42.16C216.798 42.416 217.39 42.784 217.854 43.264L217.062 44.776C216.662 44.36 216.174 44.032 215.598 43.792C215.022 43.536 214.43 43.408 213.822 43.408C212.478 43.408 211.43 43.888 210.678 44.848C209.942 45.792 209.574 47.04 209.574 48.592C209.574 50.16 209.918 51.416 210.606 52.36C211.31 53.304 212.294 53.776 213.558 53.776C214.342 53.776 215.038 53.616 215.646 53.296C216.254 52.96 216.83 52.504 217.374 51.928L218.19 53.296C217.646 53.92 216.974 54.432 216.174 54.832C215.39 55.232 214.518 55.432 213.558 55.432Z" fill="#6D7D7D"/>
<path d="M40.8605 46.0943C40.6588 45.3308 40.6587 44.5269 40.8604 43.7634C41.062 42.9999 41.4582 42.3036 42.0091 41.7447L53.489 30.0972C54.0399 29.5382 54.7261 29.1362 55.4786 28.9316C56.2312 28.7271 57.0235 28.7271 57.7761 28.9317L68.5184 31.8521C68.6302 30.359 69.1425 28.9253 70 27.7064L57.0616 24.1893C56.133 23.9369 55.1552 23.9369 54.2265 24.1893C53.2978 24.4418 52.451 24.9378 51.7712 25.6275L37.6041 40.0015C36.9243 40.6913 36.4354 41.5504 36.1866 42.4927C35.9378 43.4349 35.9378 44.427 36.1866 45.3692L39.7864 59C40.9632 58.0882 42.3643 57.5219 43.8366 57.3631L40.8605 46.0943Z" fill="#6D7D7D"/>
<path d="M77.948 40.7451L81.0685 52.2231C81.2732 52.9758 81.2729 53.7681 81.0685 54.5205C80.8638 55.2732 80.4617 55.9593 79.9028 56.5102L68.2552 67.9907C67.6963 68.5416 67.0002 68.9376 66.2365 69.1394C65.4731 69.3409 64.669 69.3409 63.9056 69.1394L52.6369 66.1631C52.4781 67.6356 51.9119 69.0367 51 70.2134L64.6307 73.8133C65.5729 74.0622 66.565 74.0622 67.5072 73.8133C68.4496 73.5644 69.3086 73.0757 69.9985 72.3958L84.3724 58.2284C85.0622 57.5485 85.558 56.7018 85.8106 55.7729C86.0631 54.8443 86.0631 53.8664 85.8106 52.9378L82.0205 39C80.8517 39.9402 79.4425 40.5441 77.948 40.7451Z" fill="#6D7D7D"/>
<path d="M39.9038 60.9012C38.9948 61.8103 38.3757 62.969 38.1249 64.23C37.8741 65.4913 38.0028 66.7985 38.4948 67.9866C38.9867 69.1743 39.8199 70.1898 40.8888 70.9043C41.9577 71.6185 43.2144 72 44.5 72C45.7856 72 47.0423 71.6185 48.1112 70.9043C49.1801 70.1898 50.0133 69.1743 50.5052 67.9866C50.9972 66.7985 51.1259 65.4913 50.8751 64.23C50.6243 62.969 50.0052 61.8103 49.0962 60.9012C47.8762 59.6838 46.2233 59 44.5 59C42.7767 59 41.1238 59.6838 39.9038 60.9012Z" fill="#6D7D7D"/>
<path d="M71.9038 27.9012C70.9949 28.8104 70.3755 29.9689 70.1249 31.2301C69.8741 32.4912 70.0028 33.7985 70.4948 34.9865C70.9868 36.1745 71.8198 37.1899 72.8886 37.9043C73.9577 38.6187 75.2144 39 76.4999 39C77.7856 39 79.0423 38.6187 80.1114 37.9043C81.1802 37.1899 82.0132 36.1745 82.5052 34.9865C82.9972 33.7985 83.1259 32.4912 82.8751 31.2301C82.6245 29.9689 82.0051 28.8104 81.0962 27.9012C79.8764 26.6837 78.2233 26 76.4999 26C74.7767 26 73.1236 26.6837 71.9038 27.9012Z" fill="#6D7D7D"/>
<path d="M64.7654 66C64.5078 66 64.2515 65.9663 64.0027 65.8996L53.9797 63.2139C53.6455 61.4293 52.7796 59.7873 51.4957 58.5036C50.2118 57.2199 48.5698 56.3538 46.7851 56.0198L44.0996 45.9981C43.9664 45.4982 43.9668 44.9722 44.1007 44.4725C44.2346 43.9728 44.4973 43.517 44.8626 43.1507L55.1501 32.8635C55.516 32.4975 55.9718 32.2344 56.4717 32.1004C56.9717 31.9665 57.498 31.9665 57.9979 32.1005L67.7399 34.7108C68.1263 36.4843 69.0394 38.0998 70.3596 39.3456C71.6798 40.5915 73.3455 41.4096 75.1384 41.6927L77.9005 52.0025C78.0335 52.5026 78.0333 53.0287 77.8991 53.5282C77.7653 54.028 77.5026 54.4837 77.1372 54.8502L66.8497 65.1372C66.5767 65.4115 66.2516 65.6293 65.8939 65.7772C65.5361 65.9254 65.1526 66.0011 64.7654 66Z" fill="#6D7D7D"/>
</svg>
