<svg width="255" height="98" viewBox="0 0 255 98" fill="none" xmlns="http://www.w3.org/2000/svg">
<path d="M91.3991 41.7442L82.5122 32.7122C82.5067 32.7066 82.5008 32.7015 82.4953 32.6959C82.4898 32.6903 82.4833 32.6828 82.477 32.6763C79.8836 30.0409 76.4648 28.4105 72.8129 28.0677C69.1611 27.7249 65.5065 28.6912 62.4819 30.7992C59.4573 28.6912 55.8027 27.7249 52.1509 28.0677C48.499 28.4105 45.0802 30.0409 42.4868 32.6763L33.6 41.7081C30.8312 44.5229 29.1966 48.2872 29.0166 52.2631C28.8366 56.239 30.1242 60.1401 32.627 63.2014C35.1298 66.2625 38.6674 68.2635 42.5462 68.8117C46.4251 69.3599 50.3656 68.4161 53.5953 66.1651C56.2103 67.9876 59.3067 68.9634 62.4775 68.9645C65.6484 68.9654 68.7452 67.9913 71.3613 66.1702C74.5872 68.4352 78.5299 69.3921 82.4146 68.8533C86.2994 68.3143 89.8455 66.3188 92.3564 63.2581C94.8671 60.1974 96.161 56.2931 95.984 52.3125C95.8068 48.3316 94.1715 44.562 91.3991 41.7442ZM48.7696 61.6422C46.7634 62.6161 44.4831 62.8376 42.3317 62.2679C40.1802 61.6984 38.2962 60.374 37.0125 58.5291C35.7289 56.6842 35.1282 54.4377 35.3168 52.1862C35.5053 49.9348 36.4708 47.8235 38.0428 46.2257L46.9294 37.1936C48.3088 35.7936 50.0807 34.8619 52.002 34.5264C53.9233 34.1909 55.8997 34.4681 57.6596 35.32L51.3735 41.7081C48.9628 44.1455 47.4022 47.3169 46.9294 50.7393C46.8253 51.4876 46.7728 52.2423 46.7723 52.998C46.766 55.9858 47.5904 58.9144 49.1504 61.4469C49.0245 61.5151 48.8976 61.5799 48.7696 61.6415V61.6422ZM69.1469 59.7726C67.3773 61.5593 64.9829 62.56 62.4884 62.556C59.994 62.5517 57.603 61.5426 55.8391 59.7501C54.0753 57.9573 53.0825 55.5273 53.0783 52.992C53.0743 50.4568 54.0589 48.0234 55.8169 46.2248L62.4819 39.4509L69.1469 46.2248C70.9115 48.0227 71.9024 50.4585 71.9024 52.998C71.9024 55.5373 70.9115 57.9732 69.1469 59.7711V59.7726ZM86.9556 59.8084C85.5698 61.2133 83.7885 62.1455 81.8583 62.4763C79.9282 62.8071 77.9446 62.5199 76.1822 61.6544C76.0555 61.5924 75.93 61.5274 75.806 61.4593C77.3708 58.9241 78.1978 55.9907 78.1915 52.998C78.1909 52.2423 78.1385 51.4876 78.0344 50.7393C77.5617 47.3169 76.001 44.1455 73.5903 41.7081L67.3426 35.3586L67.3074 35.3228C69.0664 34.4713 71.0418 34.1939 72.9622 34.5286C74.8827 34.8633 76.654 35.7937 78.0335 37.1921C78.0399 37.1986 78.0458 37.2054 78.0519 37.2119C78.058 37.2183 78.0633 37.2226 78.0688 37.2282L86.914 46.2179L86.9563 46.2609C88.7238 48.0575 89.7169 50.4942 89.7169 53.0348C89.7169 55.5753 88.7238 58.012 86.9563 59.8087L86.9556 59.8084Z" fill="#6D7D7D"/>
<path d="M106.23 61C105.867 61 105.686 60.84 105.686 60.52C105.686 60.392 105.718 60.2533 105.782 60.104L114.23 40.072C114.358 39.752 114.496 39.5387 114.646 39.432C114.795 39.304 115.008 39.24 115.286 39.24H117.046C117.344 39.24 117.558 39.304 117.686 39.432C117.835 39.5387 117.974 39.752 118.102 40.072L126.55 60.104C126.614 60.2533 126.646 60.392 126.646 60.52C126.646 60.84 126.464 61 126.102 61H123.318C123.04 61 122.838 60.968 122.71 60.904C122.603 60.8187 122.496 60.6587 122.39 60.424L120.566 55.944H111.734L109.942 60.424C109.835 60.6587 109.718 60.8187 109.59 60.904C109.483 60.968 109.291 61 109.014 61H106.23ZM119.542 52.968L116.15 44.584L112.758 52.968H119.542ZM130.978 61C130.552 61 130.242 60.904 130.05 60.712C129.88 60.52 129.794 60.232 129.794 59.848V40.424C129.794 40.0187 129.88 39.72 130.05 39.528C130.242 39.336 130.552 39.24 130.978 39.24H132.674C133.101 39.24 133.41 39.336 133.602 39.528C133.794 39.72 133.89 40.0187 133.89 40.424V59.848C133.89 60.232 133.794 60.52 133.602 60.712C133.432 60.904 133.122 61 132.674 61H130.978ZM138.853 61C138.427 61 138.117 60.904 137.925 60.712C137.755 60.52 137.669 60.232 137.669 59.848V40.424C137.669 40.0187 137.755 39.72 137.925 39.528C138.117 39.336 138.427 39.24 138.853 39.24H140.549C140.976 39.24 141.285 39.336 141.477 39.528C141.669 39.72 141.765 40.0187 141.765 40.424V59.848C141.765 60.232 141.669 60.52 141.477 60.712C141.307 60.904 140.997 61 140.549 61H138.853ZM147.144 42.984C146.632 42.984 146.238 42.8347 145.96 42.536C145.683 42.2373 145.544 41.8747 145.544 41.448V40.776C145.544 40.3493 145.683 39.9867 145.96 39.688C146.238 39.3893 146.632 39.24 147.144 39.24H148.52C149.032 39.24 149.427 39.3893 149.704 39.688C150.003 39.9867 150.152 40.3493 150.152 40.776V41.448C150.152 41.8747 150.003 42.2373 149.704 42.536C149.427 42.8347 149.032 42.984 148.52 42.984H147.144ZM147.016 61C146.59 61 146.28 60.904 146.088 60.712C145.896 60.52 145.8 60.232 145.8 59.848V46.824C145.8 46.4187 145.896 46.12 146.088 45.928C146.28 45.736 146.59 45.64 147.016 45.64H148.68C149.107 45.64 149.416 45.736 149.608 45.928C149.8 46.12 149.896 46.4187 149.896 46.824V59.848C149.896 60.232 149.8 60.52 149.608 60.712C149.438 60.904 149.128 61 148.68 61H147.016ZM160.127 61.48C158.037 61.48 156.373 60.8507 155.135 59.592C153.898 58.312 153.279 56.52 153.279 54.216C153.279 52.424 153.674 50.8453 154.463 49.48C155.253 48.0933 156.373 47.0267 157.823 46.28C159.295 45.5333 161.002 45.16 162.943 45.16C165.653 45.16 167.946 45.8 169.823 47.08V60.136C169.823 60.456 169.749 60.68 169.599 60.808C169.471 60.936 169.237 61 168.895 61H167.135C166.901 61 166.719 60.9573 166.591 60.872C166.485 60.7653 166.41 60.6053 166.367 60.392L166.111 59.144C165.45 59.9547 164.629 60.552 163.647 60.936C162.687 61.2987 161.514 61.48 160.127 61.48ZM161.663 58.568C162.794 58.568 163.786 58.2373 164.639 57.576C165.514 56.9147 165.951 56.04 165.951 54.952V48.712C165.503 48.4773 165.045 48.3173 164.575 48.232C164.127 48.1253 163.573 48.072 162.911 48.072C161.226 48.072 159.871 48.6053 158.847 49.672C157.823 50.7387 157.311 52.2107 157.311 54.088C157.311 55.624 157.663 56.7547 158.367 57.48C159.093 58.2053 160.191 58.568 161.663 58.568ZM174.823 61C174.396 61 174.087 60.904 173.895 60.712C173.703 60.52 173.607 60.232 173.607 59.848V46.504C173.607 46.184 173.66 45.96 173.767 45.832C173.873 45.704 174.097 45.64 174.439 45.64H176.263C176.732 45.64 176.977 45.8533 176.999 46.28L177.063 47.56C178.513 45.96 180.593 45.16 183.303 45.16C185.031 45.16 186.417 45.6293 187.463 46.568C188.529 47.4853 189.063 48.872 189.063 50.728V59.848C189.063 60.232 188.967 60.52 188.775 60.712C188.604 60.904 188.305 61 187.879 61H186.183C185.756 61 185.447 60.904 185.255 60.712C185.063 60.52 184.967 60.232 184.967 59.848V50.984C184.967 49.9387 184.721 49.2027 184.231 48.776C183.761 48.328 182.993 48.104 181.927 48.104C180.796 48.104 179.804 48.4133 178.951 49.032C178.119 49.6293 177.703 50.408 177.703 51.368V59.848C177.703 60.232 177.607 60.52 177.415 60.712C177.244 60.904 176.935 61 176.487 61H174.823ZM193.021 61C192.659 61 192.403 60.936 192.253 60.808C192.125 60.6587 192.061 60.4133 192.061 60.072C192.061 59.496 192.125 59.0693 192.253 58.792C192.381 58.5147 192.68 58.1307 193.149 57.64L201.661 48.776H193.565C193.139 48.776 192.829 48.6907 192.637 48.52C192.445 48.3493 192.349 48.0613 192.349 47.656V46.728C192.349 46.3227 192.445 46.0453 192.637 45.896C192.829 45.7253 193.139 45.64 193.565 45.64H205.885C206.227 45.64 206.461 45.7147 206.589 45.864C206.717 45.992 206.781 46.2267 206.781 46.568C206.781 47.144 206.707 47.592 206.557 47.912C206.429 48.2107 206.152 48.584 205.725 49.032L197.469 57.896H205.885C206.312 57.896 206.621 57.992 206.813 58.184C207.005 58.3547 207.101 58.6427 207.101 59.048V59.912C207.101 60.296 207.005 60.5733 206.813 60.744C206.621 60.9147 206.312 61 205.885 61H193.021ZM213.131 65.992C212.321 65.992 211.574 65.8747 210.891 65.64C210.209 65.4053 209.622 65.0853 209.131 64.68C208.961 64.5307 208.875 64.392 208.875 64.264C208.875 64.136 208.918 64.0187 209.003 63.912L209.899 62.376C210.027 62.1627 210.155 62.056 210.283 62.056C210.39 62.056 210.518 62.12 210.667 62.248C211.009 62.504 211.35 62.696 211.691 62.824C212.054 62.952 212.481 63.016 212.971 63.016C213.611 63.016 214.113 62.8027 214.475 62.376C214.838 61.9707 215.211 61.2773 215.595 60.296L209.131 46.536C209.046 46.3227 209.003 46.1733 209.003 46.088C209.003 45.7893 209.174 45.64 209.515 45.64H212.235C212.513 45.64 212.715 45.6827 212.843 45.768C212.971 45.8533 213.089 46.0133 213.195 46.248L217.483 56.296L221.771 46.248C221.878 46.0133 221.995 45.8533 222.123 45.768C222.251 45.6827 222.454 45.64 222.731 45.64H225.451C225.793 45.64 225.963 45.7893 225.963 46.088C225.963 46.1733 225.921 46.3227 225.835 46.536L219.819 59.368C218.987 61.1173 218.283 62.44 217.707 63.336C217.153 64.232 216.513 64.8933 215.787 65.32C215.083 65.768 214.198 65.992 213.131 65.992Z" fill="#6D7D7D"/>
</svg>
