<svg width="255" height="98" viewBox="0 0 255 98" fill="none" xmlns="http://www.w3.org/2000/svg">
<path d="M64.8379 58.584C63.9845 58.584 63.2485 58.2427 62.6299 57.56C62.0325 56.8773 61.5099 56.0027 61.0619 54.936C60.6139 53.8693 60.2192 52.7707 59.8779 51.64C59.0885 49.0587 58.7579 47.5227 58.8859 47.032C57.6272 48.7173 56.5392 50.1253 55.6219 51.256C54.7045 52.3653 53.9579 53.1973 53.3819 53.752C50.8645 56.184 48.3152 57.4 45.7339 57.4C44.9659 57.4 44.3365 57.24 43.8459 56.92C43.3339 56.6 43.0779 56.0667 43.0779 55.32C43.0779 54.8507 43.1845 54.3493 43.3979 53.816C43.6112 53.2613 43.8779 52.7387 44.1979 52.248C44.5179 51.7573 44.8379 51.352 45.1579 51.032C45.8619 50.328 46.4485 49.976 46.9179 49.976C47.0032 49.976 47.0459 49.9973 47.0459 50.04C47.0459 50.1467 46.8859 50.328 46.5659 50.584C45.8192 51.1813 45.2005 51.8747 44.7099 52.664C44.2192 53.432 43.9739 54.136 43.9739 54.776C43.9739 55.9707 44.8165 56.536 46.5019 56.472C49.2539 56.3653 53.0725 53.0373 57.9579 46.488C58.2352 46.1253 58.4699 45.8693 58.6619 45.72L58.1499 45.528C57.8725 45.6347 57.6485 45.688 57.4779 45.688C57.0299 45.688 56.8059 45.5067 56.8059 45.144C56.8059 44.6533 57.1365 44.3333 57.7979 44.184C58.2032 44.0773 58.7259 44.2587 59.3659 44.728C60.1979 43.7893 60.9979 42.8933 61.7659 42.04C62.5552 41.1867 63.2699 40.4933 63.9099 39.96C64.5499 39.4053 65.0619 39.128 65.4459 39.128C65.9579 39.128 66.2139 39.3627 66.2139 39.832C66.2139 40.024 66.1605 40.2267 66.0539 40.44C65.9685 40.632 65.8619 40.728 65.7339 40.728C65.6059 40.7493 65.5419 40.6853 65.5419 40.536C65.5419 40.4293 65.6059 40.3013 65.7339 40.152V40.024C65.7339 39.896 65.6912 39.8 65.6059 39.736C65.0512 39.3733 63.3445 41.176 60.4859 45.144C60.7205 45.1653 60.9659 45.1867 61.2219 45.208C61.4992 45.208 61.7872 45.208 62.0859 45.208C67.0352 45.208 70.1285 43.928 71.3659 41.368C71.6219 40.8133 71.7499 40.3013 71.7499 39.832C71.7499 38.8933 71.3125 38.072 70.4379 37.368C69.6485 36.728 68.6032 36.3013 67.3019 36.088C66.0219 35.8533 64.7419 35.736 63.4619 35.736C60.6245 35.736 57.6059 36.5147 54.4059 38.072C50.5232 39.9707 48.5819 42.2 48.5819 44.76C48.5819 45.592 49.1259 46.008 50.2139 46.008C51.2165 46.008 52.3472 45.6027 53.6059 44.792C54.6939 44.0667 55.4405 43.3307 55.8459 42.584C55.9952 42.3067 56.1339 42.168 56.2619 42.168C56.4112 42.168 56.4539 42.2533 56.3899 42.424C55.9845 43.6187 55.0779 44.6427 53.6699 45.496C52.3045 46.328 50.8965 46.744 49.4459 46.744C47.7179 46.744 46.9179 46.1893 47.0459 45.08C47.3659 42.2853 49.0832 39.9067 52.1979 37.944C55.2912 36.0027 59.0245 35.032 63.3979 35.032C65.0619 35.032 66.6725 35.1813 68.2299 35.48C69.8085 35.7787 71.0885 36.3333 72.0699 37.144C73.0939 37.9973 73.6059 39 73.6059 40.152C73.6059 40.6427 73.4885 41.176 73.2539 41.752C72.8912 42.584 72.3365 43.2987 71.5899 43.896C70.8432 44.472 69.9792 44.9413 68.9979 45.304C68.0165 45.6667 66.9819 45.9333 65.8939 46.104C64.8059 46.2747 63.7499 46.36 62.7259 46.36C62.1712 46.36 61.6379 46.3387 61.1259 46.296C60.6352 46.2533 60.1765 46.1893 59.7499 46.104C59.8779 46.5093 60.1019 47.2453 60.4219 48.312C60.7419 49.3787 61.1472 50.7653 61.6379 52.472C61.7872 52.9413 61.9899 53.4533 62.2459 54.008C62.5232 54.5627 62.8325 55.0853 63.1739 55.576C63.5152 56.0667 63.8779 56.472 64.2619 56.792C64.6672 57.112 65.0725 57.272 65.4779 57.272C66.3739 57.272 67.1205 56.3653 67.7179 54.552C67.8245 54.1253 67.9419 53.912 68.0699 53.912C68.1765 53.912 68.2725 54.1147 68.3579 54.52C68.3792 54.584 68.3899 54.6693 68.3899 54.776C68.3899 55.3307 68.0912 56.0133 67.4939 56.824C66.7045 57.9973 65.8192 58.584 64.8379 58.584ZM70.1164 55.416C69.4337 55.416 68.815 55.2027 68.2604 54.776C67.7057 54.328 67.4284 53.7413 67.4284 53.016C67.4284 51.5013 68.3564 49.7733 70.2124 47.832C72.111 45.8693 73.807 44.888 75.3004 44.888C75.791 44.888 76.1857 45.0267 76.4844 45.304C76.8044 45.56 76.9644 45.88 76.9644 46.264C76.9644 47.4587 76.015 48.632 74.1164 49.784C72.431 50.808 71.0124 51.32 69.8604 51.32C69.6897 51.32 69.5404 51.2987 69.4124 51.256C69.0924 51.832 68.9324 52.44 68.9324 53.08C68.9324 54.1893 69.455 54.744 70.5004 54.744C71.567 54.744 72.943 54.0293 74.6284 52.6C75.9297 51.5547 77.039 50.4453 77.9564 49.272C78.1484 49.016 78.319 48.888 78.4684 48.888C78.5964 48.888 78.6604 48.952 78.6604 49.08C78.6604 49.208 78.575 49.3893 78.4044 49.624C77.807 50.4133 77.167 51.1387 76.4844 51.8C75.8017 52.4613 75.0657 53.0693 74.2764 53.624C72.6337 54.8187 71.247 55.416 70.1164 55.416ZM70.3084 50.616C71.119 50.616 72.175 50.2107 73.4764 49.4C73.903 49.1013 74.319 48.7707 74.7244 48.408C75.151 48.024 75.4924 47.64 75.7484 47.256C76.0257 46.872 76.1644 46.5307 76.1644 46.232C76.1644 45.9547 75.9404 45.816 75.4924 45.816C74.8524 45.816 73.9564 46.296 72.8044 47.256C72.2497 47.7253 71.7164 48.2373 71.2044 48.792C70.6924 49.3467 70.255 49.9333 69.8924 50.552C70.0204 50.5947 70.159 50.616 70.3084 50.616ZM77.4391 61.56C76.7565 61.56 76.1591 61.272 75.6471 60.696C75.1351 60.0987 74.8898 59.4373 74.9111 58.712C75.1671 59.032 75.5085 59.4053 75.9351 59.832C76.4898 60.3653 77.0338 60.632 77.5671 60.632C78.7831 60.632 80.0951 59.6613 81.5031 57.72C81.9938 57.0373 82.4951 56.2373 83.0071 55.32C83.5405 54.424 84.0418 53.4213 84.5111 52.312L85.7271 49.368L81.0231 53.048C79.5725 54.1787 78.4098 54.744 77.5351 54.744C77.0658 54.744 76.6925 54.5733 76.4151 54.232C76.1378 53.8907 75.9991 53.5387 75.9991 53.176C75.9991 52.2587 76.7885 50.7547 78.3671 48.664C79.9458 46.552 81.1298 45.496 81.9191 45.496C82.5805 45.496 82.9111 45.7413 82.9111 46.232C82.9111 46.424 81.9618 47.5333 80.0631 49.56C78.1858 51.5653 77.2471 52.92 77.2471 53.624C77.2471 53.9013 77.4285 54.04 77.7911 54.04C78.4738 54.04 79.9565 53.1547 82.2391 51.384C83.1778 50.6373 84.0098 49.9547 84.7351 49.336C85.4605 48.7173 86.0685 48.1627 86.5591 47.672C86.7298 47.4587 86.9005 47.256 87.0711 47.064C87.2418 46.8507 87.4018 46.6373 87.5511 46.424C87.9565 45.9547 88.3618 45.72 88.7671 45.72C89.3431 45.72 89.6311 45.9547 89.6311 46.424C89.6311 46.5093 89.1831 47.2133 88.2871 48.536C87.8178 49.2613 87.4445 49.8267 87.1671 50.232C86.8898 50.616 86.7298 50.8613 86.6871 50.968C86.0258 52.248 85.0125 54.1147 83.6471 56.568C81.5778 59.896 79.5085 61.56 77.4391 61.56ZM92.2269 55.064C91.2242 55.064 90.4775 54.7333 89.9869 54.072C89.5175 53.4107 89.1335 52.4933 88.8349 51.32C88.4509 51.704 88.1842 51.896 88.0349 51.896C87.9282 51.896 87.8749 51.8107 87.8749 51.64C87.8749 51.512 87.9282 51.3947 88.0349 51.288C88.0349 51.288 88.3015 50.9573 88.8349 50.296C89.3895 49.6347 90.3175 48.7067 91.6189 47.512L95.6509 43.736C96.2055 43.2027 96.6429 42.7973 96.9629 42.52C97.3042 42.2427 97.5495 42.104 97.6989 42.104C98.3815 42.104 98.7229 42.36 98.7229 42.872C98.7229 43.128 98.5842 43.4267 98.3069 43.768C98.0935 44.024 97.9335 44.2267 97.8269 44.376C97.7415 44.504 97.6882 44.5787 97.6669 44.6C97.2829 45.2613 96.9309 46.4453 96.6109 48.152C96.3762 49.4107 96.1735 50.4453 96.0029 51.256C95.8322 52.0667 95.6935 52.6533 95.5869 53.016C96.4829 52.9947 97.3682 52.7173 98.2429 52.184C99.1175 51.6507 100.056 50.776 101.059 49.56C101.102 49.5173 101.166 49.4533 101.251 49.368C101.336 49.2827 101.422 49.24 101.507 49.24C101.635 49.24 101.699 49.2933 101.699 49.4C101.699 49.5067 101.667 49.6133 101.603 49.72C101.539 49.8267 101.475 49.9227 101.411 50.008C100.75 50.7973 100.131 51.448 99.5549 51.96C98.9789 52.4507 98.3709 52.8453 97.7309 53.144C97.0909 53.4213 96.3335 53.656 95.4589 53.848L94.4349 54.52C94.1575 54.712 93.8269 54.8507 93.4429 54.936C93.0589 55.0213 92.6535 55.064 92.2269 55.064ZM92.6109 53.432C93.1015 53.432 93.5069 53.3147 93.8269 53.08C94.0615 52.952 94.2855 52.6 94.4989 52.024C94.7335 51.4267 94.9575 50.6907 95.1709 49.816C95.3415 49.0693 95.4695 48.344 95.5549 47.64C95.6615 46.9147 95.7575 46.2213 95.8429 45.56L95.9709 44.472C95.4802 44.8347 94.8615 45.3573 94.1149 46.04C93.3682 46.7227 92.6322 47.4373 91.9069 48.184C91.1815 48.9307 90.7122 49.4853 90.4989 49.848C90.2855 50.1893 90.1682 50.4453 90.1469 50.616C90.0615 51.4693 90.2642 52.152 90.7549 52.664C91.2669 53.176 91.8855 53.432 92.6109 53.432ZM114.807 57.08C112.439 57.08 110.604 56.4507 109.303 55.192C108.023 53.9333 107.383 52.3013 107.383 50.296C107.383 48.4613 107.831 46.6693 108.727 44.92C109.644 43.1707 110.796 41.56 112.183 40.088C113.313 38.8933 114.604 37.8587 116.055 36.984C117.527 36.1093 119.063 35.4267 120.663 34.936C122.284 34.4453 123.863 34.2 125.399 34.2C126.615 34.2 127.713 34.3707 128.695 34.712C129.676 35.032 130.455 35.544 131.031 36.248C131.607 36.952 131.895 37.8693 131.895 39C131.895 40.0027 131.649 40.9413 131.159 41.816C130.689 42.6693 130.049 43.416 129.239 44.056C128.449 44.696 127.575 45.1973 126.615 45.56C125.655 45.9227 124.684 46.104 123.703 46.104C122.423 46.104 121.345 45.816 120.471 45.24C119.596 44.6427 119.159 43.896 119.159 43C119.159 41.848 119.895 40.7173 121.367 39.608C121.623 39.416 121.825 39.32 121.975 39.32C122.081 39.32 122.135 39.3627 122.135 39.448C122.135 39.6613 121.964 39.832 121.623 39.96C120.428 40.92 119.831 41.8907 119.831 42.872C119.831 43.576 120.151 44.1733 120.791 44.664C121.431 45.1333 122.231 45.368 123.191 45.368C124.044 45.368 124.897 45.1867 125.751 44.824C126.625 44.4613 127.425 43.9707 128.151 43.352C128.876 42.7333 129.452 42.04 129.879 41.272C130.327 40.4827 130.551 39.6613 130.551 38.808C130.551 37.4213 130.081 36.408 129.143 35.768C128.204 35.128 127.009 34.808 125.559 34.808C123.916 34.808 122.284 35.1173 120.663 35.736C119.063 36.3547 117.559 37.208 116.151 38.296C114.743 39.384 113.484 40.632 112.375 42.04C110.156 44.8347 109.047 47.4587 109.047 49.912C109.047 51.2133 109.345 52.3227 109.943 53.24C110.54 54.136 111.361 54.8187 112.407 55.288C113.473 55.7573 114.689 55.992 116.055 55.992C118.081 55.992 120.044 55.5547 121.943 54.68C123.841 53.784 125.463 52.5893 126.807 51.096C127.169 50.712 127.436 50.52 127.607 50.52C127.735 50.52 127.799 50.616 127.799 50.808C127.799 51.064 127.681 51.3093 127.447 51.544C126.721 52.312 125.857 53.0267 124.855 53.688C123.852 54.3493 122.775 54.936 121.623 55.448C120.492 55.96 119.34 56.3547 118.167 56.632C116.993 56.9307 115.873 57.08 114.807 57.08ZM131.241 55.416C130.559 55.416 129.94 55.2027 129.385 54.776C128.831 54.328 128.553 53.7413 128.553 53.016C128.553 51.5013 129.481 49.7733 131.337 47.832C133.236 45.8693 134.932 44.888 136.425 44.888C136.916 44.888 137.311 45.0267 137.609 45.304C137.929 45.56 138.089 45.88 138.089 46.264C138.089 47.4587 137.14 48.632 135.241 49.784C133.556 50.808 132.137 51.32 130.985 51.32C130.815 51.32 130.665 51.2987 130.537 51.256C130.217 51.832 130.057 52.44 130.057 53.08C130.057 54.1893 130.58 54.744 131.625 54.744C132.692 54.744 134.068 54.0293 135.753 52.6C137.055 51.5547 138.164 50.4453 139.081 49.272C139.273 49.016 139.444 48.888 139.593 48.888C139.721 48.888 139.785 48.952 139.785 49.08C139.785 49.208 139.7 49.3893 139.529 49.624C138.932 50.4133 138.292 51.1387 137.609 51.8C136.927 52.4613 136.191 53.0693 135.401 53.624C133.759 54.8187 132.372 55.416 131.241 55.416ZM131.433 50.616C132.244 50.616 133.3 50.2107 134.601 49.4C135.028 49.1013 135.444 48.7707 135.849 48.408C136.276 48.024 136.617 47.64 136.873 47.256C137.151 46.872 137.289 46.5307 137.289 46.232C137.289 45.9547 137.065 45.816 136.617 45.816C135.977 45.816 135.081 46.296 133.929 47.256C133.375 47.7253 132.841 48.2373 132.329 48.792C131.817 49.3467 131.38 49.9333 131.017 50.552C131.145 50.5947 131.284 50.616 131.433 50.616ZM144.356 55.16C143.439 55.16 142.809 54.9253 142.468 54.456C142.127 53.9653 141.956 53.3147 141.956 52.504C141.956 51.608 142.233 50.5413 142.788 49.304C143.001 48.8133 143.225 48.376 143.46 47.992C143.695 47.5867 143.94 47.2133 144.196 46.872C144.111 46.8933 144.036 46.904 143.972 46.904C143.908 46.904 143.844 46.904 143.78 46.904C143.268 46.904 142.841 46.5413 142.5 45.816L140.132 48.888C138.873 50.5307 138.105 51.352 137.828 51.352C137.721 51.352 137.668 51.3093 137.668 51.224C137.668 51.1173 137.721 50.9787 137.828 50.808C137.892 50.68 138.02 50.5093 138.212 50.296C139.023 49.3573 139.769 48.4293 140.452 47.512C141.135 46.5947 141.7 45.6987 142.148 44.824C142.639 42.968 143.257 42.04 144.004 42.04C144.495 42.04 144.74 42.264 144.74 42.712C144.74 43.1173 144.473 43.6507 143.94 44.312C143.428 44.9733 143.172 45.3147 143.172 45.336C143.172 45.784 143.503 46.008 144.164 46.008C144.548 46.008 144.975 45.8693 145.444 45.592L146.276 45.08C146.319 45.0587 146.383 45.048 146.468 45.048C146.724 45.048 146.948 45.1547 147.14 45.368C147.332 45.5813 147.396 45.7733 147.332 45.944L145.124 48.728C143.759 50.4773 143.076 51.8853 143.076 52.952C143.076 53.912 143.545 54.392 144.484 54.392C145.124 54.392 145.807 54.2 146.532 53.816C147.279 53.432 147.993 52.9627 148.676 52.408C149.38 51.832 149.967 51.2773 150.436 50.744L151.204 49.848C151.247 49.8053 151.3 49.752 151.364 49.688C151.428 49.624 151.481 49.592 151.524 49.592C151.673 49.592 151.748 49.6667 151.748 49.816C151.748 49.8587 151.727 49.9333 151.684 50.04C151.641 50.1467 151.567 50.264 151.46 50.392L150.436 51.544C149.945 52.0987 149.337 52.664 148.612 53.24C147.908 53.7947 147.172 54.2533 146.404 54.616C145.657 54.9787 144.975 55.16 144.356 55.16ZM152.566 55.16C152.054 55.16 151.542 54.9787 151.03 54.616C150.518 54.2533 150.23 53.8267 150.166 53.336C149.953 51.6933 150.987 49.7413 153.27 47.48C155.531 45.2187 157.569 44.088 159.382 44.088C159.873 44.088 160.257 44.2053 160.534 44.44C160.683 44.5893 160.79 44.792 160.854 45.048C160.939 45.304 161.003 45.432 161.046 45.432C161.131 45.432 161.206 45.4213 161.27 45.4C161.334 45.3573 161.409 45.336 161.494 45.336C161.75 45.336 161.974 45.432 162.166 45.624C162.358 45.816 162.465 45.9867 162.486 46.136C162.507 46.1787 161.825 47.2347 160.438 49.304C159.051 51.3307 158.422 52.7067 158.55 53.432C158.657 53.9227 158.891 54.168 159.254 54.168C160.363 54.168 162.39 52.3333 165.334 48.664C165.398 48.5787 165.462 48.536 165.526 48.536C165.633 48.536 165.686 48.6107 165.686 48.76C165.686 48.9307 165.59 49.144 165.398 49.4C162.689 53.048 160.609 54.872 159.158 54.872C158.966 54.872 158.785 54.84 158.614 54.776C157.675 54.4133 157.206 53.7093 157.206 52.664C157.206 52.3013 157.249 51.9387 157.334 51.576L155.35 53.496C154.753 54.0933 154.209 54.52 153.718 54.776C153.249 55.032 152.865 55.16 152.566 55.16ZM152.278 54.456C153.515 54.456 155.201 53.1013 157.334 50.392L160.726 45.72C160.555 45.4213 160.278 45.272 159.894 45.272C158.593 45.272 156.833 46.3173 154.614 48.408C152.31 50.5413 151.275 52.3013 151.51 53.688C151.617 54.2 151.873 54.456 152.278 54.456ZM171.161 55.064C170.649 55.064 170.393 54.776 170.393 54.2C170.628 53.0053 171.108 51.6613 171.833 50.168C172.175 49.4427 172.516 48.728 172.857 48.024C173.22 47.32 173.572 46.6053 173.913 45.88C173.124 46.4133 172.335 47.0107 171.545 47.672C170.756 48.312 169.988 49.0373 169.241 49.848C168.367 50.7867 167.353 51.992 166.201 53.464C165.369 54.5093 164.889 55.032 164.761 55.032C164.463 55.032 164.217 54.8933 164.025 54.616C163.833 54.3387 163.737 54.104 163.737 53.912C163.737 53.6347 163.983 52.92 164.473 51.768C164.623 51.4053 164.772 51.0533 164.921 50.712C165.092 50.3493 165.252 49.9973 165.401 49.656L163.481 51.672C163.439 51.7147 163.311 51.8427 163.097 52.056C162.884 52.2693 162.713 52.376 162.585 52.376C162.479 52.376 162.425 52.3013 162.425 52.152C162.425 52.1093 162.447 52.056 162.489 51.992C162.511 51.9067 162.575 51.8107 162.681 51.704C163.001 51.384 163.332 51.0427 163.673 50.68C164.015 50.3173 164.367 49.9013 164.729 49.432C165.007 49.0693 165.401 48.536 165.913 47.832C166.447 47.1067 167.097 46.2 167.865 45.112C168.1 44.792 168.431 44.632 168.857 44.632C169.284 44.632 169.497 44.8347 169.497 45.24C169.497 45.3893 168.953 46.3813 167.865 48.216C167.311 49.1973 166.863 49.9973 166.521 50.616C166.201 51.2347 165.999 51.6933 165.913 51.992C166.383 51.48 166.937 50.904 167.577 50.264C168.239 49.624 168.996 48.9093 169.849 48.12C172.473 45.688 174.201 44.472 175.033 44.472C175.268 44.472 175.492 44.5467 175.705 44.696C175.94 44.8453 176.057 45.0373 176.057 45.272C176.057 45.3787 175.641 46.1573 174.809 47.608C173.999 49.08 173.551 49.9547 173.465 50.232C175.833 48.248 177.017 47.2453 177.017 47.224C179.023 45.6667 180.463 44.888 181.337 44.888C181.593 44.888 181.828 44.9733 182.041 45.144C182.276 45.2933 182.393 45.4747 182.393 45.688C182.393 45.7307 181.711 46.6267 180.345 48.376C178.937 50.1467 178.148 51.5973 177.977 52.728C177.892 53.496 178.287 53.88 179.161 53.88C179.695 53.88 180.441 53.5387 181.401 52.856C182.361 52.1733 183.364 51.2347 184.409 50.04C184.537 49.8907 184.676 49.752 184.825 49.624C184.975 49.4747 185.103 49.4 185.209 49.4C185.337 49.4 185.401 49.4533 185.401 49.56C185.401 49.7093 185.305 49.88 185.113 50.072C184.559 50.7333 183.897 51.416 183.129 52.12C182.383 52.824 181.636 53.4213 180.889 53.912C180.143 54.3813 179.481 54.616 178.905 54.616C177.455 54.616 176.729 53.944 176.729 52.6C176.729 52.1307 176.857 51.5867 177.113 50.968C177.369 50.328 177.625 49.752 177.881 49.24C178.5 48.0453 179.172 46.9893 179.897 46.072C179.215 46.4133 178.5 46.8613 177.753 47.416C177.028 47.9707 176.271 48.6213 175.481 49.368C173.647 51.16 172.388 52.9733 171.705 54.808C171.599 54.9787 171.417 55.064 171.161 55.064ZM190.869 43.992C190.506 43.992 190.186 43.8747 189.909 43.64C189.653 43.4053 189.525 43.1387 189.525 42.84C189.525 42.2427 189.93 41.944 190.741 41.944C191.04 41.944 191.338 42.0507 191.637 42.264C191.936 42.456 192.085 42.7013 192.085 43C192.085 43.256 191.946 43.4907 191.669 43.704C191.392 43.896 191.125 43.992 190.869 43.992ZM184.949 55.352C184.48 55.352 184.096 55.2027 183.797 54.904C183.477 54.584 183.317 54.0293 183.317 53.24C183.317 52.792 183.424 52.28 183.637 51.704C183.829 51.1067 184.074 50.5093 184.373 49.912C184.693 49.3147 185.002 48.7813 185.301 48.312C186.496 46.3707 187.477 45.3893 188.245 45.368C188.437 45.368 188.672 45.4533 188.949 45.624C189.226 45.7733 189.365 45.944 189.365 46.136C189.365 46.136 188.554 47.1813 186.933 49.272C185.333 51.3413 184.533 52.8133 184.533 53.688C184.533 54.3707 184.8 54.712 185.333 54.712C185.674 54.712 186.112 54.5733 186.645 54.296C187.2 53.9973 187.776 53.624 188.373 53.176C188.97 52.728 189.536 52.248 190.069 51.736C190.624 51.224 191.072 50.7547 191.413 50.328C191.626 50.0507 191.808 49.8587 191.957 49.752C192.128 49.6453 192.234 49.592 192.277 49.592C192.362 49.592 192.405 49.656 192.405 49.784C192.405 49.8907 192.277 50.104 192.021 50.424C191.786 50.744 191.456 51.1173 191.029 51.544C190.517 52.056 189.952 52.6107 189.333 53.208C188.714 53.8053 188.042 54.3173 187.317 54.744C186.592 55.1493 185.802 55.352 184.949 55.352ZM193.448 55.416C192.765 55.416 192.146 55.2027 191.592 54.776C191.037 54.328 190.76 53.7413 190.76 53.016C190.76 51.5013 191.688 49.7733 193.544 47.832C195.442 45.8693 197.138 44.888 198.632 44.888C199.144 44.888 199.549 45.0267 199.848 45.304C200.146 45.56 200.296 45.88 200.296 46.264C200.296 46.7973 200.168 47.288 199.912 47.736C199.613 48.2907 199.186 48.568 198.632 48.568C198.077 48.568 197.8 48.3973 197.8 48.056C197.8 47.8213 197.938 47.4693 198.216 47C198.514 46.5093 198.664 46.2533 198.664 46.232C198.664 46.1893 198.632 46.168 198.568 46.168C197.97 46.232 197.138 46.6693 196.072 47.48C195.602 47.8427 195.186 48.184 194.824 48.504C194.482 48.824 194.205 49.1333 193.992 49.432L192.744 51.256C192.616 51.448 192.477 51.7787 192.328 52.248C192.2 52.7173 192.136 53.0693 192.136 53.304C192.136 53.7307 192.274 54.0827 192.552 54.36C192.85 54.6373 193.224 54.776 193.672 54.776C194.738 54.776 196.146 54.0827 197.896 52.696C199.304 51.5867 200.434 50.4667 201.288 49.336C201.394 49.208 201.522 49.144 201.672 49.144C201.821 49.144 201.896 49.1867 201.896 49.272C201.896 49.336 201.842 49.4427 201.736 49.592C200.562 51.1493 199.186 52.4933 197.608 53.624C195.922 54.8187 194.536 55.416 193.448 55.416ZM203.758 55.064C202.755 55.064 202.009 54.7333 201.518 54.072C201.049 53.4107 200.665 52.4933 200.366 51.32C199.982 51.704 199.715 51.896 199.566 51.896C199.459 51.896 199.406 51.8107 199.406 51.64C199.406 51.512 199.459 51.3947 199.566 51.288C199.566 51.288 199.833 50.9573 200.366 50.296C200.921 49.6347 201.849 48.7067 203.15 47.512L207.182 43.736C207.737 43.2027 208.174 42.7973 208.494 42.52C208.835 42.2427 209.081 42.104 209.23 42.104C209.913 42.104 210.254 42.36 210.254 42.872C210.254 43.128 210.115 43.4267 209.838 43.768C209.625 44.024 209.465 44.2267 209.358 44.376C209.273 44.504 209.219 44.5787 209.198 44.6C208.814 45.2613 208.462 46.4453 208.142 48.152C207.907 49.4107 207.705 50.4453 207.534 51.256C207.363 52.0667 207.225 52.6533 207.118 53.016C208.014 52.9947 208.899 52.7173 209.774 52.184C210.649 51.6507 211.587 50.776 212.59 49.56C212.633 49.5173 212.697 49.4533 212.782 49.368C212.867 49.2827 212.953 49.24 213.038 49.24C213.166 49.24 213.23 49.2933 213.23 49.4C213.23 49.5067 213.198 49.6133 213.134 49.72C213.07 49.8267 213.006 49.9227 212.942 50.008C212.281 50.7973 211.662 51.448 211.086 51.96C210.51 52.4507 209.902 52.8453 209.262 53.144C208.622 53.4213 207.865 53.656 206.99 53.848L205.966 54.52C205.689 54.712 205.358 54.8507 204.974 54.936C204.59 55.0213 204.185 55.064 203.758 55.064ZM204.142 53.432C204.633 53.432 205.038 53.3147 205.358 53.08C205.593 52.952 205.817 52.6 206.03 52.024C206.265 51.4267 206.489 50.6907 206.702 49.816C206.873 49.0693 207.001 48.344 207.086 47.64C207.193 46.9147 207.289 46.2213 207.374 45.56L207.502 44.472C207.011 44.8347 206.393 45.3573 205.646 46.04C204.899 46.7227 204.163 47.4373 203.438 48.184C202.713 48.9307 202.243 49.4853 202.03 49.848C201.817 50.1893 201.699 50.4453 201.678 50.616C201.593 51.4693 201.795 52.152 202.286 52.664C202.798 53.176 203.417 53.432 204.142 53.432Z" fill="#6D7D7D"/>
</svg>
