<svg width="255" height="98" viewBox="0 0 255 98" fill="none" xmlns="http://www.w3.org/2000/svg">
<path d="M90.2446 33.7061L91.9417 31.9967C95.2745 28.6396 100.7 28.5566 104.052 31.8942C105.322 33.1617 106.166 34.7982 106.466 36.5736C106.765 38.3492 106.505 40.1745 105.721 41.7933C105.346 42.5666 105.219 43.4388 105.359 44.2881C105.5 45.1374 105.9 45.9214 106.504 46.5305C107.614 45.4091 108.495 44.0783 109.095 42.614C109.694 41.1498 110.002 39.5808 110 37.9967C109.998 36.4127 109.686 34.8446 109.082 33.3821C108.478 31.9195 107.593 30.5912 106.48 29.473C101.792 24.7784 94.1844 24.8718 89.5105 29.5796L73.3338 45.8735L72.0039 44.534C68.6146 41.12 68.593 35.5396 72.0421 32.1864C73.3188 30.949 74.9453 30.1412 76.6972 29.8745C78.4491 29.6079 80.2399 29.8956 81.8226 30.6978C82.5449 31.0706 83.3658 31.204 84.1679 31.0789C84.9701 30.9537 85.7124 30.5765 86.289 30.001L86.3302 29.9596C86.3431 29.9468 86.3532 29.9315 86.3602 29.9147C86.3671 29.8979 86.3707 29.8798 86.3707 29.8616C86.3707 29.8434 86.3671 29.8253 86.3602 29.8085C86.3532 29.7917 86.3431 29.7764 86.3302 29.7636C84.1037 27.5772 81.1201 26.3491 78.0107 26.3392C74.9013 26.3293 71.9099 27.5383 69.6697 29.7104C64.8441 34.4027 64.8613 42.2057 69.6043 46.9831L85.7762 63.2727L84.0583 65.0031C80.7255 68.3601 75.2995 68.4432 71.9478 65.1055C70.6777 63.8381 69.8337 62.2015 69.5342 60.4261C69.2348 58.6507 69.495 56.8253 70.2784 55.2064C70.6542 54.4331 70.7808 53.5609 70.6407 52.7117C70.5005 51.8624 70.1004 51.0783 69.4965 50.4692C68.3858 51.5907 67.5053 52.9214 66.9054 54.3856C66.3054 55.85 65.9978 57.4188 66 59.003C66.0022 60.587 66.3143 62.1552 66.9183 63.6176C67.5224 65.0802 68.4066 66.4086 69.5205 67.5268C74.2073 72.2215 81.8156 72.1283 86.4896 67.4204L102.687 51.1047L104.022 52.4493C107.355 55.8063 107.437 61.2715 104.124 64.6476C102.866 65.9272 101.241 66.7772 99.4782 67.079C97.7156 67.3806 95.9034 67.1183 94.2962 66.3292C93.5282 65.9505 92.6619 65.8228 91.8184 65.9643C90.975 66.1057 90.1964 66.509 89.5916 67.1179C90.705 68.2368 92.0262 69.1237 93.4798 69.728C94.9336 70.3322 96.4911 70.6422 98.0639 70.64C99.6364 70.6376 101.193 70.3232 102.645 69.7148C104.097 69.1063 105.416 68.2157 106.526 67.0937C111.187 62.3728 111.094 54.7092 106.42 50.0014L90.2446 33.7061ZM88.1911 60.8391L75.7493 48.3069L87.8288 36.1397L100.271 48.672L88.1911 60.8391Z" fill="#6D7D7D"/>
<path d="M122.552 41.072V46H120.2V34.544H128.248V36.512H122.552V39.104H127.576V41.072H122.552ZM137.121 46H134.929V44.8C134.332 45.7173 133.484 46.176 132.385 46.176C131.414 46.176 130.678 45.888 130.177 45.312C129.75 44.8107 129.537 44.1227 129.537 43.248V37.52H131.745V42.784C131.745 43.7973 132.214 44.304 133.153 44.304C133.686 44.304 134.113 44.1547 134.433 43.856C134.764 43.5573 134.929 43.152 134.929 42.64V37.52H137.121V46ZM146.795 34.544V46H144.587V45.056C144.075 45.8027 143.301 46.176 142.267 46.176C141.147 46.176 140.245 45.7067 139.563 44.768C138.976 43.968 138.683 42.9707 138.683 41.776C138.683 40.3573 139.056 39.2373 139.803 38.416C140.453 37.7013 141.269 37.344 142.251 37.344C143.285 37.344 144.064 37.7387 144.587 38.528V34.544H146.795ZM142.747 39.152C142.192 39.152 141.744 39.392 141.403 39.872C141.061 40.352 140.891 40.9813 140.891 41.76C140.891 42.528 141.056 43.152 141.387 43.632C141.728 44.1013 142.181 44.336 142.747 44.336C143.312 44.336 143.76 44.1013 144.091 43.632C144.432 43.1627 144.603 42.5387 144.603 41.76C144.603 40.9707 144.432 40.3413 144.091 39.872C143.749 39.392 143.301 39.152 142.747 39.152ZM156.115 45.44V46H153.715C153.555 45.7973 153.47 45.5093 153.459 45.136C152.872 45.8293 152.019 46.176 150.899 46.176C150.078 46.176 149.416 45.9253 148.915 45.424C148.51 45.0187 148.307 44.4587 148.307 43.744C148.307 42.6773 148.734 41.92 149.587 41.472C149.95 41.28 150.67 41.088 151.747 40.896L153.475 40.576L153.459 39.968C153.448 39.4027 153.022 39.12 152.179 39.12C151.635 39.12 151.251 39.2053 151.027 39.376C150.814 39.536 150.68 39.8347 150.627 40.272H148.515C148.643 38.32 149.848 37.344 152.131 37.344C153.39 37.344 154.296 37.568 154.851 38.016C155.352 38.4427 155.603 39.088 155.603 39.952V44.688C155.603 45.072 155.774 45.3227 156.115 45.44ZM153.475 41.904L151.859 42.272C151.4 42.3787 151.059 42.5333 150.835 42.736C150.622 42.9387 150.515 43.1893 150.515 43.488C150.515 44.096 150.91 44.4 151.699 44.4C152.84 44.4 153.427 43.776 153.459 42.528L153.475 41.904ZM122.552 59.072V64H120.2V52.544H128.248V54.512H122.552V57.104H127.576V59.072H122.552ZM137.121 64H134.929V62.8C134.332 63.7173 133.484 64.176 132.385 64.176C131.414 64.176 130.678 63.888 130.177 63.312C129.75 62.8107 129.537 62.1227 129.537 61.248V55.52H131.745V60.784C131.745 61.7973 132.214 62.304 133.153 62.304C133.686 62.304 134.113 62.1547 134.433 61.856C134.764 61.5573 134.929 61.152 134.929 60.64V55.52H137.121V64ZM139.211 55.52H141.419V57.136C141.696 55.9413 142.485 55.344 143.787 55.344C143.989 55.344 144.133 55.344 144.219 55.344L144.235 57.52C143.968 57.4667 143.691 57.44 143.403 57.44C142.677 57.44 142.176 57.5733 141.899 57.84C141.579 58.1387 141.419 58.6773 141.419 59.456V64H139.211V55.52ZM145.32 55.52H147.528V56.72C148.125 55.8027 148.968 55.344 150.056 55.344C151.027 55.344 151.763 55.632 152.264 56.208C152.691 56.72 152.904 57.4133 152.904 58.288V64H150.712V58.736C150.712 57.7227 150.237 57.216 149.288 57.216C148.755 57.216 148.328 57.3707 148.008 57.68C147.688 57.9787 147.528 58.3787 147.528 58.88V64H145.32V55.52ZM157.17 55.52V64H154.962V55.52H157.17ZM156.049 52.608C156.338 52.608 156.578 52.7093 156.77 52.912C156.972 53.1147 157.074 53.36 157.074 53.648C157.074 53.936 156.972 54.1813 156.77 54.384C156.578 54.576 156.338 54.672 156.049 54.672C155.762 54.672 155.516 54.576 155.314 54.384C155.111 54.1813 155.01 53.936 155.01 53.648C155.01 53.36 155.111 53.1147 155.314 52.912C155.516 52.7093 155.762 52.608 156.049 52.608ZM163.321 55.52V56.976H161.833V61.696C161.833 62.0053 161.886 62.2187 161.993 62.336C162.11 62.4533 162.318 62.512 162.617 62.512C162.862 62.512 163.177 62.416 163.561 62.224C163.593 62.2027 163.619 62.1867 163.641 62.176L163.897 63.68C163.225 64.0107 162.521 64.176 161.785 64.176C160.345 64.176 159.625 63.5147 159.625 62.192V56.976H158.537V55.52H159.625V54.112L161.833 52.848V55.52H163.321ZM172.824 64H170.632V62.8C170.035 63.7173 169.187 64.176 168.088 64.176C167.117 64.176 166.381 63.888 165.88 63.312C165.453 62.8107 165.24 62.1227 165.24 61.248V55.52H167.448V60.784C167.448 61.7973 167.917 62.304 168.856 62.304C169.389 62.304 169.816 62.1547 170.136 61.856C170.467 61.5573 170.632 61.152 170.632 60.64V55.52H172.824V64ZM174.914 55.52H177.122V57.136C177.399 55.9413 178.189 55.344 179.49 55.344C179.693 55.344 179.837 55.344 179.922 55.344L179.938 57.52C179.671 57.4667 179.394 57.44 179.106 57.44C178.381 57.44 177.879 57.5733 177.602 57.84C177.282 58.1387 177.122 58.6773 177.122 59.456V64H174.914V55.52ZM188.399 60.336H182.703C182.735 61.0187 182.842 61.504 183.023 61.792C183.333 62.2613 183.818 62.496 184.479 62.496C185.301 62.496 185.85 62.1547 186.127 61.472H188.303C188.058 62.304 187.578 62.9653 186.863 63.456C186.159 63.936 185.333 64.176 184.383 64.176C183.093 64.176 182.101 63.744 181.407 62.88C180.799 62.1227 180.495 61.1253 180.495 59.888C180.495 58.384 180.89 57.2213 181.679 56.4C182.373 55.696 183.285 55.344 184.415 55.344C185.279 55.344 186.037 55.5573 186.687 55.984C187.338 56.4107 187.802 57.008 188.079 57.776C188.303 58.3733 188.415 59.0933 188.415 59.936C188.415 60.0427 188.41 60.176 188.399 60.336ZM186.111 58.88C186.005 57.6427 185.434 57.024 184.399 57.024C183.429 57.024 182.874 57.6427 182.735 58.88H186.111Z" fill="#6D7D7D"/>
</svg>
