<svg width="34" height="35" viewBox="0 0 34 35" fill="none" xmlns="http://www.w3.org/2000/svg">
<path id="Vector" d="M4.86047 22.0943C4.65878 21.3308 4.65875 20.5269 4.86038 19.7634C5.06202 18.9999 5.45821 18.3036 6.00913 17.7447L17.489 6.09716C18.0399 5.53819 18.7261 5.13621 19.4786 4.93163C20.2312 4.72705 21.0235 4.72708 21.7761 4.93172L32.5184 7.85215C32.6302 6.359 33.1425 4.92532 34 3.70642L21.0616 0.18933C20.133 -0.0631155 19.1552 -0.0631103 18.2265 0.189347C17.2978 0.441805 16.451 0.937822 15.7712 1.62755L1.60412 16.0015C0.924318 16.6913 0.435444 17.5504 0.186622 18.4927C-0.0622018 19.4349 -0.0622072 20.427 0.186605 21.3692L3.78642 35C4.96321 34.0882 6.36426 33.5219 7.83665 33.3631L4.86047 22.0943Z" fill="#6D7D7D"/>
</svg>
