<svg width="67" height="41" viewBox="0 0 67 41" fill="none" xmlns="http://www.w3.org/2000/svg">
<path id="Vector" d="M62.3991 13.7442L53.5122 4.71219C53.5067 4.70661 53.5008 4.70146 53.4953 4.69588C53.4898 4.6903 53.4833 4.68279 53.477 4.67635C50.8836 2.04092 47.4648 0.410543 43.8129 0.0677135C40.1611 -0.275116 36.5065 0.691207 33.4819 2.79924C30.4573 0.691207 26.8027 -0.275116 23.1509 0.0677135C19.499 0.410543 16.0802 2.04092 13.4868 4.67635L4.60001 13.7081C1.83121 16.5229 0.196605 20.2872 0.0166147 24.2631C-0.163376 28.239 1.12422 32.1401 3.62702 35.2014C6.12983 38.2625 9.66735 40.2635 13.5462 40.8117C17.4251 41.3599 21.3656 40.4161 24.5953 38.1651C27.2103 39.9876 30.3067 40.9634 33.4775 40.9645C36.6484 40.9654 39.7452 39.9913 42.3613 38.1702C45.5872 40.4352 49.5299 41.3921 53.4146 40.8533C57.2994 40.3143 60.8455 38.3188 63.3564 35.2581C65.8671 32.1974 67.161 28.2931 66.984 24.3125C66.8068 20.3316 65.1715 16.562 62.3991 13.7442ZM19.7696 33.6422C17.7634 34.6161 15.4831 34.8376 13.3317 34.2679C11.1802 33.6984 9.29619 32.374 8.01252 30.5291C6.72888 28.6842 6.12823 26.4377 6.31677 24.1862C6.50528 21.9348 7.47084 19.8235 9.0428 18.2257L17.9294 9.19364C19.3088 7.79361 21.0807 6.86186 23.002 6.52639C24.9233 6.19091 26.8997 6.46813 28.6596 7.31997L22.3735 13.7081C19.9628 16.1455 18.4022 19.3169 17.9294 22.7393C17.8253 23.4876 17.7728 24.2423 17.7723 24.998C17.766 27.9858 18.5904 30.9144 20.1504 33.4469C20.0245 33.5151 19.8976 33.5799 19.7696 33.6415V33.6422ZM40.1469 31.7726C38.3773 33.5593 35.9829 34.56 33.4884 34.556C30.994 34.5517 28.603 33.5426 26.8391 31.7501C25.0753 29.9573 24.0825 27.5273 24.0783 24.992C24.0743 22.4568 25.0589 20.0234 26.8169 18.2248L33.4819 11.4509L40.1469 18.2248C41.9115 20.0227 42.9024 22.4585 42.9024 24.998C42.9024 27.5373 41.9115 29.9732 40.1469 31.7711V31.7726ZM57.9556 31.8084C56.5698 33.2133 54.7885 34.1455 52.8583 34.4763C50.9282 34.8071 48.9446 34.5199 47.1822 33.6544C47.0555 33.5924 46.93 33.5274 46.806 33.4593C48.3708 30.9241 49.1978 27.9907 49.1915 24.998C49.1909 24.2423 49.1385 23.4876 49.0344 22.7393C48.5617 19.3169 47.001 16.1455 44.5903 13.7081L38.3426 7.35861L38.3074 7.32276C40.0664 6.47131 42.0418 6.1939 43.9622 6.52858C45.8827 6.86328 47.654 7.79368 49.0335 9.19214C49.0399 9.19858 49.0458 9.20545 49.0519 9.21189C49.058 9.21833 49.0633 9.22262 49.0688 9.2282L57.914 18.2179L57.9563 18.2609C59.7238 20.0575 60.7169 22.4942 60.7169 25.0348C60.7169 27.5753 59.7238 30.012 57.9563 31.8087L57.9556 31.8084Z" fill="#6D7D7D"/>
</svg>
