<svg width="14" height="14" viewBox="0 0 14 14" fill="none" xmlns="http://www.w3.org/2000/svg">
<rect width="14" height="14" fill="#F5F5F5"/>
<g id="Home" clip-path="url(#clip0_0_1)">
<rect width="1920" height="5652" transform="translate(-569 -5342)" fill="#191D1D"/>
<g id="Footer">
<rect id="Footer BG" x="-569" y="-331" width="1920" height="518" fill="#131616"/>
<g id="Social Media">
<g id="Instagram">
<circle id="Ellipse 6" cx="7" cy="7" r="17.5" stroke="#6D7D7D"/>
<g id="instagram" clip-path="url(#clip1_0_1)">
<path id="Vector" d="M7.00271 3.85537C5.26365 3.85537 3.86091 5.25811 3.86091 6.99717C3.86091 8.73623 5.26365 10.139 7.00271 10.139C8.74177 10.139 10.1445 8.73623 10.1445 6.99717C10.1445 5.25811 8.74177 3.85537 7.00271 3.85537ZM7.00271 9.03975C5.87888 9.03975 4.96013 8.12373 4.96013 6.99717C4.96013 5.87061 5.87615 4.95459 7.00271 4.95459C8.12927 4.95459 9.04529 5.87061 9.04529 6.99717C9.04529 8.12373 8.12654 9.03975 7.00271 9.03975ZM11.0058 3.72686C11.0058 4.13428 10.6777 4.45967 10.273 4.45967C9.8656 4.45967 9.54021 4.13154 9.54021 3.72686C9.54021 3.32217 9.86834 2.99404 10.273 2.99404C10.6777 2.99404 11.0058 3.32217 11.0058 3.72686ZM13.0867 4.47061C13.0402 3.48896 12.816 2.61943 12.0969 1.90303C11.3804 1.18662 10.5109 0.962402 9.52927 0.913184C8.51755 0.855762 5.48513 0.855762 4.47341 0.913184C3.49451 0.959668 2.62498 1.18389 1.90584 1.90029C1.18669 2.6167 0.96521 3.48623 0.915991 4.46787C0.858569 5.47959 0.858569 8.51201 0.915991 9.52373C0.962476 10.5054 1.18669 11.3749 1.90584 12.0913C2.62498 12.8077 3.49177 13.0319 4.47341 13.0812C5.48513 13.1386 8.51755 13.1386 9.52927 13.0812C10.5109 13.0347 11.3804 12.8104 12.0969 12.0913C12.8133 11.3749 13.0375 10.5054 13.0867 9.52373C13.1441 8.51201 13.1441 5.48232 13.0867 4.47061ZM11.7797 10.6093C11.5664 11.1452 11.1535 11.5581 10.6148 11.7741C9.80818 12.094 7.89412 12.0202 7.00271 12.0202C6.1113 12.0202 4.19451 12.0913 3.3906 11.7741C2.85466 11.5608 2.44177 11.1479 2.22576 10.6093C1.90584 9.80264 1.97966 7.88857 1.97966 6.99717C1.97966 6.10576 1.90857 4.18896 2.22576 3.38506C2.43904 2.84912 2.85193 2.43623 3.3906 2.22021C4.19724 1.90029 6.1113 1.97412 7.00271 1.97412C7.89412 1.97412 9.81091 1.90303 10.6148 2.22021C11.1508 2.4335 11.5636 2.84639 11.7797 3.38506C12.0996 4.1917 12.0258 6.10576 12.0258 6.99717C12.0258 7.88857 12.0996 9.80537 11.7797 10.6093Z" fill="white"/>
</g>
</g>
</g>
</g>
</g>
<defs>
<clipPath id="clip0_0_1">
<rect width="1920" height="5652" fill="white" transform="translate(-569 -5342)"/>
</clipPath>
<clipPath id="clip1_0_1">
<rect width="14" height="14" fill="white"/>
</clipPath>
</defs>
</svg>
