<svg width="36" height="36" viewBox="0 0 36 36" fill="none" xmlns="http://www.w3.org/2000/svg">
<circle cx="18" cy="18" r="17.5" stroke="#6D7D7D"/>
<g clip-path="url(#clip0_101_12)">
<path d="M18.0027 14.8554C16.2636 14.8554 14.8609 16.2581 14.8609 17.9972C14.8609 19.7362 16.2636 21.139 18.0027 21.139C19.7418 21.139 21.1445 19.7362 21.1445 17.9972C21.1445 16.2581 19.7418 14.8554 18.0027 14.8554ZM18.0027 20.0397C16.8789 20.0397 15.9601 19.1237 15.9601 17.9972C15.9601 16.8706 16.8761 15.9546 18.0027 15.9546C19.1293 15.9546 20.0453 16.8706 20.0453 17.9972C20.0453 19.1237 19.1265 20.0397 18.0027 20.0397ZM22.0058 14.7269C22.0058 15.1343 21.6777 15.4597 21.273 15.4597C20.8656 15.4597 20.5402 15.1315 20.5402 14.7269C20.5402 14.3222 20.8683 13.994 21.273 13.994C21.6777 13.994 22.0058 14.3222 22.0058 14.7269ZM24.0867 15.4706C24.0402 14.489 23.816 13.6194 23.0969 12.903C22.3804 12.1866 21.5109 11.9624 20.5293 11.9132C19.5176 11.8558 16.4851 11.8558 15.4734 11.9132C14.4945 11.9597 13.625 12.1839 12.9058 12.9003C12.1867 13.6167 11.9652 14.4862 11.916 15.4679C11.8586 16.4796 11.8586 19.512 11.916 20.5237C11.9625 21.5054 12.1867 22.3749 12.9058 23.0913C13.625 23.8077 14.4918 24.0319 15.4734 24.0812C16.4851 24.1386 19.5176 24.1386 20.5293 24.0812C21.5109 24.0347 22.3804 23.8104 23.0969 23.0913C23.8133 22.3749 24.0375 21.5054 24.0867 20.5237C24.1441 19.512 24.1441 16.4823 24.0867 15.4706ZM22.7797 21.6093C22.5664 22.1452 22.1535 22.5581 21.6148 22.7741C20.8082 23.094 18.8941 23.0202 18.0027 23.0202C17.1113 23.0202 15.1945 23.0913 14.3906 22.7741C13.8547 22.5608 13.4418 22.1479 13.2258 21.6093C12.9058 20.8026 12.9797 18.8886 12.9797 17.9972C12.9797 17.1058 12.9086 15.189 13.2258 14.3851C13.439 13.8491 13.8519 13.4362 14.3906 13.2202C15.1972 12.9003 17.1113 12.9741 18.0027 12.9741C18.8941 12.9741 20.8109 12.903 21.6148 13.2202C22.1508 13.4335 22.5636 13.8464 22.7797 14.3851C23.0996 15.1917 23.0258 17.1058 23.0258 17.9972C23.0258 18.8886 23.0996 20.8054 22.7797 21.6093Z" fill="white"/>
</g>
<defs>
<clipPath id="clip0_101_12">
<rect width="14" height="14" fill="white" transform="translate(11 11)"/>
</clipPath>
</defs>
</svg>
