<svg width="14" height="14" viewBox="0 0 14 14" fill="none" xmlns="http://www.w3.org/2000/svg">
<rect width="14" height="14" fill="#F5F5F5"/>
<g id="Home" clip-path="url(#clip0_0_1)">
<rect width="1920" height="5652" transform="translate(-513 -5342)" fill="#191D1D"/>
<g id="Footer">
<rect id="Footer BG" x="-513" y="-331" width="1920" height="518" fill="#131616"/>
<g id="Social Media">
<g id="Linkedin">
<circle id="Ellipse 6" cx="7" cy="7" r="17.5" stroke="#6D7D7D"/>
<g id="linkedin-in">
<path id="Vector" d="M3.61703 12.2502H1.07734V4.0717H3.61703V12.2502ZM2.34582 2.95607C1.53371 2.95607 0.875 2.28342 0.875 1.47131C0.875 1.08122 1.02996 0.707114 1.30579 0.431282C1.58163 0.155449 1.95573 0.000488281 2.34582 0.000488281C2.73591 0.000488281 3.11001 0.155449 3.38585 0.431282C3.66168 0.707114 3.81664 1.08122 3.81664 1.47131C3.81664 2.28342 3.15766 2.95607 2.34582 2.95607ZM13.1223 12.2502H10.588V8.26896C10.588 7.32014 10.5689 6.10334 9.26762 6.10334C7.94719 6.10334 7.74484 7.1342 7.74484 8.20061V12.2502H5.20789V4.0717H7.64367V5.18732H7.67922C8.01828 4.54475 8.84652 3.86662 10.0822 3.86662C12.6525 3.86662 13.125 5.5592 13.125 7.75764V12.2502H13.1223Z" fill="white"/>
</g>
</g>
</g>
</g>
</g>
<defs>
<clipPath id="clip0_0_1">
<rect width="1920" height="5652" fill="white" transform="translate(-513 -5342)"/>
</clipPath>
</defs>
</svg>
