<svg width="14" height="14" viewBox="0 0 14 14" fill="none" xmlns="http://www.w3.org/2000/svg">
<path d="M12.5609 4.14868C12.5698 4.27304 12.5698 4.39743 12.5698 4.52179C12.5698 8.31491 9.68275 12.6855 4.40609 12.6855C2.78045 12.6855 1.27031 12.2147 0 11.3974C0.230973 11.4241 0.453031 11.4329 0.692891 11.4329C2.03424 11.4329 3.26903 10.9799 4.25507 10.2071C2.99365 10.1804 1.93654 9.35428 1.57232 8.21721C1.75 8.24385 1.92765 8.26162 2.11422 8.26162C2.37182 8.26162 2.62946 8.22607 2.86929 8.16392C1.55457 7.8974 0.568504 6.74259 0.568504 5.34793V5.31241C0.950469 5.52561 1.39467 5.65885 1.86545 5.6766C1.0926 5.16136 0.586277 4.28193 0.586277 3.287C0.586277 2.75402 0.728383 2.26544 0.977129 1.83904C2.38957 3.58015 4.51268 4.71719 6.89336 4.84157C6.84895 4.62837 6.82229 4.40632 6.82229 4.18423C6.82229 2.603 8.10149 1.31494 9.69158 1.31494C10.5177 1.31494 11.2639 1.66139 11.788 2.22103C12.4365 2.09667 13.0583 1.85681 13.6091 1.52814C13.3959 2.1944 12.9428 2.75404 12.3477 3.10935C12.9251 3.0472 13.4847 2.88726 13.9999 2.6652C13.6091 3.23371 13.1205 3.74003 12.5609 4.14868Z" fill="white"/>
</svg>
