<svg width="36" height="36" viewBox="0 0 36 36" fill="none" xmlns="http://www.w3.org/2000/svg">
<circle cx="18" cy="18" r="17.5" stroke="#6D7D7D"/>
<path d="M23.5609 15.1487C23.5698 15.273 23.5698 15.3974 23.5698 15.5218C23.5698 19.3149 20.6827 23.6855 15.4061 23.6855C13.7804 23.6855 12.2703 23.2147 11 22.3974C11.231 22.4241 11.453 22.4329 11.6929 22.4329C13.0342 22.4329 14.269 21.9799 15.2551 21.2071C13.9936 21.1804 12.9365 20.3543 12.5723 19.2172C12.75 19.2438 12.9277 19.2616 13.1142 19.2616C13.3718 19.2616 13.6295 19.2261 13.8693 19.1639C12.5546 18.8974 11.5685 17.7426 11.5685 16.3479V16.3124C11.9505 16.5256 12.3947 16.6589 12.8654 16.6766C12.0926 16.1614 11.5863 15.2819 11.5863 14.287C11.5863 13.754 11.7284 13.2654 11.9771 12.839C13.3896 14.5802 15.5127 15.7172 17.8934 15.8416C17.849 15.6284 17.8223 15.4063 17.8223 15.1842C17.8223 13.603 19.1015 12.3149 20.6916 12.3149C21.5177 12.3149 22.2639 12.6614 22.788 13.221C23.4365 13.0967 24.0583 12.8568 24.6091 12.5281C24.3959 13.1944 23.9428 13.754 23.3477 14.1093C23.9251 14.0472 24.4847 13.8873 24.9999 13.6652C24.6091 14.2337 24.1205 14.74 23.5609 15.1487Z" fill="white"/>
</svg>
