<svg width="97" height="11" viewBox="0 0 97 11" fill="none" xmlns="http://www.w3.org/2000/svg">
<path d="M0.00800002 11V0.695999H1.752V11H0.00800002ZM10.6536 11V0.695999H12.1896L17.5656 8.28V0.695999H19.2936V11H17.7576L12.3976 3.432V11H10.6536ZM30.8775 11V2.056H27.5815V0.695999H35.9015V2.056H32.6215V11H30.8775ZM44.1792 11V0.695999H51.3632V2.056H45.9232V5.176H50.7712V6.52H45.9232V9.656H51.3632V11H44.1792ZM59.8561 11V0.695999H64.5921C65.7441 0.695999 66.5815 0.994666 67.1041 1.592C67.6375 2.17867 67.9041 2.97867 67.9041 3.992C67.9041 4.71733 67.7228 5.336 67.3601 5.848C66.9975 6.36 66.4748 6.71733 65.7921 6.92C65.9841 7.05867 66.1335 7.208 66.2401 7.368C66.3468 7.528 66.4535 7.74133 66.5601 8.008L67.8561 11H66.0641L64.8001 8.12C64.6828 7.84267 64.5388 7.64533 64.3681 7.528C64.2081 7.41067 63.9308 7.352 63.5361 7.352H61.6001V11H59.8561ZM61.6001 5.944H64.1281C64.7575 5.944 65.2535 5.78933 65.6161 5.48C65.9788 5.17067 66.1601 4.67467 66.1601 3.992C66.1601 2.70133 65.5361 2.056 64.2881 2.056H61.6001V5.944ZM76.5018 11V0.695999H78.2458V11H76.5018ZM86.8434 11L90.7794 0.695999H92.7314L96.6354 11H94.8434L93.8194 8.344H89.6754L88.6514 11H86.8434ZM89.9474 7H93.5314L91.7394 2.28L89.9474 7Z" fill="white"/>
</svg>
